<svg xmlns="http://www.w3.org/2000/svg" xmlns:svg="http://www.w3.org/2000/svg" id="svg5918" width="16" height="16" version="1.1" viewBox="0 0 16 16"><defs id="defs5920"><clipPath id="clipPath16" clipPathUnits="userSpaceOnUse"><path id="path18" d="m 0,595.28 841.89,0 L 841.89,0 0,0 0,595.28 Z"/></clipPath><clipPath id="clipPath16-0" clipPathUnits="userSpaceOnUse"><path id="path18-1" d="m 0,595.28 841.89,0 L 841.89,0 0,0 0,595.28 Z"/></clipPath><clipPath id="clipPath16-9" clipPathUnits="userSpaceOnUse"><path id="path18-3" d="m 0,595.28 841.89,0 L 841.89,0 0,0 0,595.28 Z"/></clipPath><clipPath id="clipPath16-7" clipPathUnits="userSpaceOnUse"><path id="path18-7" d="m 0,595.28 841.89,0 L 841.89,0 0,0 0,595.28 Z"/></clipPath><clipPath id="clipPath16-5" clipPathUnits="userSpaceOnUse"><path id="path18-35" d="m 0,595.28 841.89,0 L 841.89,0 0,0 0,595.28 Z"/></clipPath><clipPath id="clipPath16-0-1" clipPathUnits="userSpaceOnUse"><path id="path18-1-1" d="m 0,595.28 841.89,0 L 841.89,0 0,0 0,595.28 Z"/></clipPath><clipPath id="clipPath16-9-5" clipPathUnits="userSpaceOnUse"><path id="path18-3-4" d="m 0,595.28 841.89,0 L 841.89,0 0,0 0,595.28 Z"/></clipPath><clipPath id="clipPath16-7-1" clipPathUnits="userSpaceOnUse"><path id="path18-7-0" d="m 0,595.28 841.89,0 L 841.89,0 0,0 0,595.28 Z"/></clipPath></defs><metadata id="metadata5923"/><g id="layer1" transform="translate(-182.93849,-560.7201)"><g id="g5346" display="inline" transform="translate(-769.06151,404.35792)"><g id="g4159"><path id="path4331" fill="gray" fill-opacity="1" fill-rule="nonzero" stroke="none" stroke-width="7.5" d="m 959,157.36219 2,0 0,14 -2,0 z" color="#000" display="inline" enable-background="accumulate" overflow="visible" visibility="visible" style="marker:none"/><rect id="rect4333" width="2" height="14" x="163.362" y="-967" fill="gray" fill-opacity="1" fill-rule="nonzero" stroke="none" stroke-width="7.5" color="#000" display="inline" enable-background="accumulate" overflow="visible" transform="matrix(0,1,-1,0,0,0)" visibility="visible" style="marker:none"/></g></g></g></svg>