<svg xmlns="http://www.w3.org/2000/svg" xmlns:svg="http://www.w3.org/2000/svg" id="svg5918" width="16" height="16" version="1.1" viewBox="0 0 16 16"><metadata id="metadata5923"/><g id="layer1" transform="translate(-182.93849,-560.72008)"><g id="g5346" display="inline" transform="translate(-769.06151,404.35792)"><rect id="rect5348" width="16" height="16" x="952" y="156.362" fill="none" fill-opacity="1" fill-rule="nonzero" stroke="none" stroke-dasharray="1.5 1.5" stroke-dashoffset=".6" stroke-linecap="butt" stroke-linejoin="miter" stroke-miterlimit="4" stroke-opacity="1" stroke-width="1.5" color="#000" display="inline" enable-background="accumulate" opacity="1" overflow="visible" visibility="visible" style="marker:none"/><g id="g4393" display="inline" transform="translate(752,-432.00001)"><path id="path4232" fill="#df382c" fill-opacity="1" stroke="none" stroke-width="1" d="m 201.1667,604.3622 c -0.6377,0 -1.1667,-0.52898 -1.1667,-1.16667 l 0,-2.66666 c 0,-0.63769 0.529,-1.16667 1.1667,-1.16667 l 2.6666,0 c 0.6377,0 1.1667,0.52898 1.1667,1.16667 l 0,2.66666 c 0,0.63769 -0.529,1.16667 -1.1667,1.16667 l -2.6666,0 z m 0,-1 2.6666,0 c 0.101,0 0.1667,-0.0657 0.1667,-0.16667 l 0,-2.66666 c 0,-0.10099 -0.066,-0.16667 -0.1667,-0.16667 l -2.6666,0 c -0.101,0 -0.1667,0.0657 -0.1667,0.16667 l 0,2.66666 c 0,0.10099 0.066,0.16667 0.1667,0.16667 z" baseline-shift="baseline" clip-rule="nonzero" color="#000" color-interpolation="sRGB" color-interpolation-filters="linearRGB" color-rendering="auto" direction="ltr" display="inline" enable-background="accumulate" font-family="sans-serif" font-size="xx-small" font-stretch="normal" font-style="normal" font-variant="normal" font-weight="normal" image-rendering="auto" letter-spacing="normal" overflow="visible" shape-rendering="auto" text-anchor="start" text-decoration="none" text-rendering="auto" visibility="visible" word-spacing="normal" writing-mode="lr-tb" style="line-height:normal;-inkscape-font-specification:sans-serif;text-indent:0;text-align:start;text-decoration-line:none;text-transform:none;block-progression:tb;marker:none"/><path id="path4234" fill="#df382c" fill-opacity="1" stroke="none" stroke-width="1" d="m 212.1667,593.3622 c -0.6377,0 -1.1667,-0.52898 -1.1667,-1.16667 l 0,-2.66666 c 0,-0.63769 0.529,-1.16667 1.1667,-1.16667 l 2.6666,0 c 0.6377,0 1.1667,0.52898 1.1667,1.16667 l 0,2.66666 c 0,0.63769 -0.529,1.16667 -1.1667,1.16667 l -2.6666,0 z m 0,-1 2.6666,0 c 0.101,0 0.1667,-0.0657 0.1667,-0.16667 l 0,-2.66666 c 0,-0.10099 -0.066,-0.16667 -0.1667,-0.16667 l -2.6666,0 c -0.101,0 -0.1667,0.0657 -0.1667,0.16667 l 0,2.66666 c 0,0.10099 0.066,0.16667 0.1667,0.16667 z" baseline-shift="baseline" clip-rule="nonzero" color="#000" color-interpolation="sRGB" color-interpolation-filters="linearRGB" color-rendering="auto" direction="ltr" display="inline" enable-background="accumulate" font-family="sans-serif" font-size="xx-small" font-stretch="normal" font-style="normal" font-variant="normal" font-weight="normal" image-rendering="auto" letter-spacing="normal" overflow="visible" shape-rendering="auto" text-anchor="start" text-decoration="none" text-rendering="auto" visibility="visible" word-spacing="normal" writing-mode="lr-tb" style="line-height:normal;-inkscape-font-specification:sans-serif;text-indent:0;text-align:start;text-decoration-line:none;text-transform:none;block-progression:tb;marker:none"/><path id="path4236" fill="#df382c" fill-opacity="1" fill-rule="nonzero" stroke="none" stroke-width="1" d="m 208,598.36219 c -1.0967,0 -2,-0.90333 -2,-2 0,-1.09668 0.9033,-2 2,-2 1.0966,0 2,0.90332 2,2 0,1.09667 -0.9034,2 -2,2 z" baseline-shift="baseline" clip-rule="nonzero" color="#000" color-interpolation="sRGB" color-interpolation-filters="linearRGB" color-rendering="auto" direction="ltr" display="inline" enable-background="accumulate" font-family="sans-serif" font-size="xx-small" font-stretch="normal" font-style="normal" font-variant="normal" font-weight="normal" image-rendering="auto" letter-spacing="normal" overflow="visible" shape-rendering="auto" text-anchor="start" text-decoration="none" text-rendering="auto" visibility="visible" word-spacing="normal" writing-mode="lr-tb" style="line-height:normal;-inkscape-font-specification:sans-serif;text-indent:0;text-align:start;text-decoration-line:none;text-transform:none;block-progression:tb;marker:none"/><path id="path4238" fill="#df382c" fill-opacity="1" fill-rule="nonzero" stroke="none" stroke-width="1" d="m 211.6464,592.00865 -8,8 0.7072,0.7071 8,-8 -0.7072,-0.7071 z" baseline-shift="baseline" clip-rule="nonzero" color="#000" color-interpolation="sRGB" color-interpolation-filters="linearRGB" color-rendering="auto" direction="ltr" display="inline" enable-background="accumulate" font-family="sans-serif" font-size="xx-small" font-stretch="normal" font-style="normal" font-variant="normal" font-weight="normal" image-rendering="auto" letter-spacing="normal" overflow="visible" shape-rendering="auto" text-anchor="start" text-decoration="none" text-rendering="auto" visibility="visible" word-spacing="normal" writing-mode="lr-tb" style="line-height:normal;-inkscape-font-specification:sans-serif;text-indent:0;text-align:start;text-decoration-line:none;text-transform:none;block-progression:tb;marker:none"/></g></g></g></svg>