<svg xmlns="http://www.w3.org/2000/svg" xmlns:svg="http://www.w3.org/2000/svg" id="svg5918" width="16" height="16" version="1.1" viewBox="0 0 16 16"><metadata id="metadata5923"/><g id="layer1" transform="translate(-182.93849,-560.72008)"><g id="g5346" display="inline" transform="translate(-769.06151,404.35792)"><rect id="rect5348" width="16" height="16" x="952" y="156.362" fill="none" fill-opacity="1" fill-rule="nonzero" stroke="none" stroke-dasharray="1.5 1.5" stroke-dashoffset=".6" stroke-linecap="butt" stroke-linejoin="miter" stroke-miterlimit="4" stroke-opacity="1" stroke-width="1.5" color="#000" display="inline" enable-background="accumulate" opacity="1" overflow="visible" visibility="visible" style="marker:none"/><g id="g4366" display="inline" transform="translate(712,-752.00002)"><path id="path4279" fill="#df382c" fill-opacity="1" stroke="none" stroke-width="1" d="m 241.1667,924.3622 c -0.6377,0 -1.1667,-0.52898 -1.1667,-1.16667 l 0,-13.66666 c 0,-0.63769 0.529,-1.16667 1.1667,-1.16667 l 13.6666,0 c 0.6377,0 1.1667,0.52898 1.1667,1.16667 l 0,13.66666 c 0,0.63769 -0.529,1.16667 -1.1667,1.16667 z m 0,-1 13.6666,0 c 0.101,0 0.1667,-0.0657 0.1667,-0.16667 l 0,-13.66666 c 0,-0.10099 -0.066,-0.16667 -0.1667,-0.16667 l -13.6666,0 c -0.101,0 -0.1667,0.0657 -0.1667,0.16667 l 0,13.66666 c 0,0.10099 0.066,0.16667 0.1667,0.16667 z" baseline-shift="baseline" clip-rule="nonzero" color="#000" color-interpolation="sRGB" color-interpolation-filters="linearRGB" color-rendering="auto" direction="ltr" display="inline" enable-background="accumulate" font-family="sans-serif" font-size="xx-small" font-stretch="normal" font-style="normal" font-variant="normal" font-weight="normal" image-rendering="auto" letter-spacing="normal" overflow="visible" shape-rendering="auto" text-anchor="start" text-decoration="none" text-rendering="auto" visibility="visible" word-spacing="normal" writing-mode="lr-tb" style="line-height:normal;-inkscape-font-specification:sans-serif;text-indent:0;text-align:start;text-decoration-line:none;text-transform:none;block-progression:tb;marker:none"/><rect id="rect4281" width="16" height="1" x="240" y="913.362" fill="#df382c" fill-opacity="1" fill-rule="nonzero" stroke="none" stroke-width="2" color="#000" display="inline" enable-background="accumulate" overflow="visible" visibility="visible" style="marker:none"/><rect id="rect4283" width="16" height="1" x="240" y="918.362" fill="#df382c" fill-opacity="1" fill-rule="nonzero" stroke="none" stroke-width="2" color="#000" display="inline" enable-background="accumulate" overflow="visible" visibility="visible" style="marker:none"/></g></g></g></svg>