<svg xmlns="http://www.w3.org/2000/svg" xmlns:svg="http://www.w3.org/2000/svg" id="svg5918" width="16" height="16" version="1.1" viewBox="0 0 16 16"><metadata id="metadata5923"/><g id="layer1" transform="translate(-182.93849,-560.72008)"><g id="g5346" display="inline" transform="translate(-769.06151,404.35792)"><rect id="rect5348" width="16" height="16" x="952" y="156.362" fill="none" fill-opacity="1" fill-rule="nonzero" stroke="none" stroke-dasharray="1.5 1.5" stroke-dashoffset=".6" stroke-linecap="butt" stroke-linejoin="miter" stroke-miterlimit="4" stroke-opacity="1" stroke-width="1.5" color="#000" display="inline" enable-background="accumulate" opacity="1" overflow="visible" visibility="visible" style="marker:none"/><path id="path4508" fill="gray" fill-opacity="1" stroke="none" stroke-width="1" d="m 957.3594,156.36132 c -2.15,0 -3.5103,0.11683 -4.377,0.98437 -0.8666,0.86754 -0.9824,2.2287 -0.9824,4.38086 l 0,5.27149 c 0,2.15216 0.1158,3.51332 0.9824,4.38086 0.8667,0.86754 2.227,0.98242 4.377,0.98242 l 5.2812,0 c 2.15,0 3.5103,-0.11488 4.377,-0.98242 0.8666,-0.86754 0.9824,-2.2287 0.9824,-4.38086 l 0,-5.27149 c 0,-2.15216 -0.1158,-3.51332 -0.9824,-4.38086 -0.8667,-0.86754 -2.227,-0.98437 -4.377,-0.98437 l -5.2812,0 z m 0,1 5.2812,0 c 2.1024,0 3.1698,0.18875 3.67,0.68945 0.5001,0.5007 0.6894,1.57119 0.6894,3.67578 l 0,5.27149 c 0,2.10459 -0.1893,3.17312 -0.6894,3.67383 -0.5002,0.5007 -1.5676,0.68945 -3.67,0.68945 l -5.2812,0 c -2.1024,0 -3.1698,-0.18875 -3.6699,-0.68945 C 953.1893,170.17116 953,169.10263 953,166.99804 l 0,-5.27149 c 0,-2.10459 0.1893,-3.17508 0.6895,-3.67578 0.5001,-0.5007 1.5675,-0.68945 3.6699,-0.68945 z" baseline-shift="baseline" clip-rule="nonzero" color="#000" color-interpolation="sRGB" color-interpolation-filters="linearRGB" color-rendering="auto" direction="ltr" display="inline" enable-background="accumulate" font-family="sans-serif" font-size="medium" font-stretch="normal" font-style="normal" font-variant="normal" font-weight="normal" image-rendering="auto" letter-spacing="normal" overflow="visible" paint-order="normal" shape-rendering="auto" text-anchor="start" text-decoration="none" text-rendering="auto" visibility="visible" word-spacing="normal" writing-mode="lr-tb" style="line-height:normal;-inkscape-font-specification:sans-serif;text-indent:0;text-align:start;text-decoration-line:none;text-transform:none;block-progression:tb;isolation:auto;mix-blend-mode:normal;marker:none"/></g></g></svg>