<svg xmlns="http://www.w3.org/2000/svg" xmlns:svg="http://www.w3.org/2000/svg" id="svg5918" width="16" height="16" version="1.1" viewBox="0 0 16 16"><defs id="defs5920"><clipPath id="clipPath16" clipPathUnits="userSpaceOnUse"><path id="path18" d="m 0,595.28 841.89,0 L 841.89,0 0,0 0,595.28 Z"/></clipPath><clipPath id="clipPath16-0" clipPathUnits="userSpaceOnUse"><path id="path18-1" d="m 0,595.28 841.89,0 L 841.89,0 0,0 0,595.28 Z"/></clipPath><clipPath id="clipPath16-9" clipPathUnits="userSpaceOnUse"><path id="path18-3" d="m 0,595.28 841.89,0 L 841.89,0 0,0 0,595.28 Z"/></clipPath></defs><metadata id="metadata5923"/><g id="layer1" transform="translate(-182.93849,-560.7201)"><g id="g5346" display="inline" transform="translate(-769.06151,404.35792)"><g id="g4411" display="inline" transform="matrix(0.66666668,0,0,0.66666668,877.33333,-182.54594)"><rect id="rect4413" width="24" height="24" x="112" y="508.362" fill="none" stroke="none" stroke-width="7.5" color="#000" display="inline" enable-background="accumulate" overflow="visible" visibility="visible" style="marker:none"/><path id="path4415" fill="gray" fill-opacity="1" fill-rule="nonzero" stroke="none" stroke-width=".8" d="m 119.49998,511.36219 0,3 9.00002,0 0,-3 z" color="#000" display="inline" enable-background="accumulate" overflow="visible" visibility="visible" style="marker:none"/><path id="path4417" fill="gray" fill-opacity="1" fill-rule="nonzero" stroke="none" stroke-width=".8" d="m 119.49998,518.86219 0,3 9.00002,0 0,-3 z" color="#000" display="inline" enable-background="accumulate" overflow="visible" visibility="visible" style="marker:none"/><path id="path4419" fill="gray" fill-opacity="1" fill-rule="nonzero" stroke="none" stroke-width=".8" d="m 119.49998,526.36219 0,3 9.00002,0 0,-3 z" color="#000" display="inline" enable-background="accumulate" overflow="visible" visibility="visible" style="marker:none"/></g></g></g></svg>