<svg xmlns="http://www.w3.org/2000/svg" xmlns:svg="http://www.w3.org/2000/svg" id="svg5918" width="16" height="16" version="1.1" viewBox="0 0 16 16"><defs id="defs5920"><clipPath id="clipPath16" clipPathUnits="userSpaceOnUse"><path id="path18" d="m 0,595.28 841.89,0 L 841.89,0 0,0 0,595.28 Z"/></clipPath><clipPath id="clipPath16-0" clipPathUnits="userSpaceOnUse"><path id="path18-1" d="m 0,595.28 841.89,0 L 841.89,0 0,0 0,595.28 Z"/></clipPath><clipPath id="clipPath16-9" clipPathUnits="userSpaceOnUse"><path id="path18-3" d="m 0,595.28 841.89,0 L 841.89,0 0,0 0,595.28 Z"/></clipPath><clipPath id="clipPath16-7" clipPathUnits="userSpaceOnUse"><path id="path18-7" d="m 0,595.28 841.89,0 L 841.89,0 0,0 0,595.28 Z"/></clipPath></defs><metadata id="metadata5923"/><g id="layer1" transform="translate(-182.93849,-560.7201)"><g id="g5346" display="inline" transform="translate(-769.06151,404.35792)"><g id="g4693" display="inline" transform="translate(760,-280)"><rect id="rect4559" width="16" height="16" x="192" y="436.362" fill="none" stroke="none" stroke-width="7.5" color="#000" display="inline" enable-background="accumulate" opacity=".114" overflow="visible" visibility="visible" style="marker:none"/><rect id="rect4561" width="16" height="16" x="192" y="436.362" fill="none" stroke="none" stroke-width="7.5" color="#000" display="inline" enable-background="accumulate" opacity=".114" overflow="visible" visibility="visible" style="marker:none"/><rect id="rect4563" width="16" height="16" x="192" y="436.362" fill="none" stroke="none" stroke-width="6" color="#000" display="inline" enable-background="accumulate" opacity=".114" overflow="visible" visibility="visible" style="marker:none"/><path id="rect4573" fill="gray" fill-opacity="1" fill-rule="nonzero" stroke="none" stroke-dasharray="none" stroke-dashoffset="0" stroke-linecap="butt" stroke-linejoin="round" stroke-miterlimit="4" stroke-opacity="1" stroke-width="1.5" d="m 193.99999,440.36133 0,1 2,0 0,-1 -2,0 z m 11,0 0,1 2,0 0,-1 -2,0 z m -11,2 0,8.50586 c 0,0.82235 0.67765,1.5 1.5,1.5 l 10,0 c 0.82235,0 1.5,-0.67765 1.5,-1.5 l 0,-8.50586 -2,0 0,7.50586 c 0,0.28565 -0.21435,0.5 -0.5,0.5 l -8,0 c -0.28565,0 -0.5,-0.21435 -0.5,-0.5 l 0,-7.50586 -2,0 z" baseline-shift="baseline" clip-rule="nonzero" color="#000" color-interpolation="sRGB" color-interpolation-filters="linearRGB" color-rendering="auto" direction="ltr" display="inline" enable-background="accumulate" font-family="sans-serif" font-size="medium" font-stretch="normal" font-style="normal" font-variant="normal" font-weight="normal" image-rendering="auto" letter-spacing="normal" opacity="1" overflow="visible" shape-rendering="auto" text-anchor="start" text-decoration="none" text-rendering="auto" visibility="visible" word-spacing="normal" writing-mode="lr-tb" style="line-height:normal;text-indent:0;text-align:start;text-decoration-line:none;text-decoration-style:solid;text-decoration-color:#000;text-transform:none;block-progression:tb;isolation:auto;mix-blend-mode:normal;solid-color:#000;solid-opacity:1;marker:none"/><path id="rect4593" fill="gray" fill-opacity="1" fill-rule="nonzero" stroke="none" stroke-dasharray="none" stroke-dashoffset="0" stroke-linecap="butt" stroke-linejoin="round" stroke-miterlimit="4" stroke-opacity="1" stroke-width="1" d="m 197.99999,436.36133 0,1 0,2 1,0 0,-2 3,0 0,2 1,0 0,-2 0,-1 -1,0 -3,0 -1,0 z" color="#000" display="inline" enable-background="accumulate" opacity="1" overflow="visible" visibility="visible" style="marker:none"/><rect id="rect4595" width="1" height="6" x="197" y="442.362" fill="gray" fill-opacity="1" fill-rule="nonzero" stroke="none" stroke-dasharray="none" stroke-dashoffset="0" stroke-linecap="butt" stroke-linejoin="round" stroke-miterlimit="4" stroke-opacity="1" stroke-width="1" color="#000" display="inline" enable-background="accumulate" opacity="1" overflow="visible" visibility="visible" style="marker:none"/><rect id="rect4597" width="1" height="6" x="200" y="442.362" fill="gray" fill-opacity="1" fill-rule="nonzero" stroke="none" stroke-dasharray="none" stroke-dashoffset="0" stroke-linecap="butt" stroke-linejoin="round" stroke-miterlimit="4" stroke-opacity="1" stroke-width="1" color="#000" display="inline" enable-background="accumulate" opacity="1" overflow="visible" visibility="visible" style="marker:none"/><rect id="rect4599" width="1" height="6" x="203" y="442.362" fill="gray" fill-opacity="1" fill-rule="nonzero" stroke="none" stroke-dasharray="none" stroke-dashoffset="0" stroke-linecap="butt" stroke-linejoin="round" stroke-miterlimit="4" stroke-opacity="1" stroke-width="1" color="#000" display="inline" enable-background="accumulate" opacity="1" overflow="visible" visibility="visible" style="marker:none"/><path id="path4648" fill="gray" fill-opacity="1" fill-rule="nonzero" stroke="none" stroke-dasharray="none" stroke-dashoffset="0" stroke-linecap="butt" stroke-linejoin="round" stroke-miterlimit="4" stroke-opacity="1" stroke-width="1.5" d="m 195.49999,438.36133 c -0.82235,0 -1.5,0.67764 -1.5,1.5 l 0,0.5 0,1 13,0 0,-1 0,-0.5 c 0,-0.82236 -0.67765,-1.5 -1.5,-1.5 l -10,0 z m -1.5,4 0,8.00586 2,0 0,-8.00586 -2,0 z m 11,0 0,8.00586 2,0 0,-8.00586 -2,0 z" baseline-shift="baseline" clip-rule="nonzero" color="#000" color-interpolation="sRGB" color-interpolation-filters="linearRGB" color-rendering="auto" direction="ltr" display="inline" enable-background="accumulate" font-family="sans-serif" font-size="medium" font-stretch="normal" font-style="normal" font-variant="normal" font-weight="normal" image-rendering="auto" letter-spacing="normal" opacity="1" overflow="visible" shape-rendering="auto" text-anchor="start" text-decoration="none" text-rendering="auto" visibility="visible" word-spacing="normal" writing-mode="lr-tb" style="line-height:normal;text-indent:0;text-align:start;text-decoration-line:none;text-decoration-style:solid;text-decoration-color:#000;text-transform:none;block-progression:tb;isolation:auto;mix-blend-mode:normal;solid-color:#000;solid-opacity:1;marker:none"/></g></g></g></svg>