<svg xmlns="http://www.w3.org/2000/svg" xmlns:svg="http://www.w3.org/2000/svg" id="svg5918" width="16" height="16" version="1.1" viewBox="0 0 16 16"><defs id="defs5920"><clipPath id="clipPath16" clipPathUnits="userSpaceOnUse"><path id="path18" d="m 0,595.28 841.89,0 L 841.89,0 0,0 0,595.28 Z"/></clipPath><clipPath id="clipPath16-0" clipPathUnits="userSpaceOnUse"><path id="path18-1" d="m 0,595.28 841.89,0 L 841.89,0 0,0 0,595.28 Z"/></clipPath><clipPath id="clipPath16-9" clipPathUnits="userSpaceOnUse"><path id="path18-3" d="m 0,595.28 841.89,0 L 841.89,0 0,0 0,595.28 Z"/></clipPath><clipPath id="clipPath16-7" clipPathUnits="userSpaceOnUse"><path id="path18-7" d="m 0,595.28 841.89,0 L 841.89,0 0,0 0,595.28 Z"/></clipPath></defs><metadata id="metadata5923"/><g id="layer1" transform="translate(-182.93849,-560.7201)"><g id="g5346" display="inline" transform="translate(-769.06151,404.35792)"><g id="g4505" display="inline" transform="matrix(0.66666668,0,0,0.66666668,930.66666,4.120726)"><rect id="rect4507" width="24" height="24" x="32" y="228.362" fill="none" stroke="none" opacity=".212"/><path id="path4511" fill="gray" fill-opacity="1" fill-rule="nonzero" stroke="none" stroke-width="3" d="m 44.866279,231.45809 c 0,0 5.440922,-2.15528 11.129423,-3.10991 6.92e-4,7e-4 0.0015,0.002 0.0012,0.003 9.29e-4,0.001 2.3e-4,0.003 9.9e-4,0.005 2.31e-4,0.001 0,0.003 9.92e-4,0.005 6.91e-4,0.001 4.62e-4,0.002 0.0012,0.003 -1.061162,5.94599 -3.119799,11.10965 -3.119799,11.10965 z" color="#000" display="inline" enable-background="accumulate" overflow="visible" visibility="visible" style="marker:none"/><path id="path4513" fill="none" fill-opacity="1" fill-rule="nonzero" stroke="gray" stroke-dasharray="none" stroke-dashoffset="0" stroke-linecap="butt" stroke-linejoin="round" stroke-miterlimit="4" stroke-opacity="1" stroke-width="3" d="m 43.800459,240.54819 6.666666,-6.66666" color="#000" display="inline" enable-background="accumulate" overflow="visible" visibility="visible" style="marker:none"/><path id="rect4515" fill="gray" fill-opacity="1" fill-rule="nonzero" stroke="none" stroke-dasharray="none" stroke-dashoffset="0" stroke-linecap="butt" stroke-linejoin="round" stroke-miterlimit="4" stroke-opacity="1" stroke-width="1" d="m 34.250003,231.36089 c -1.23352,0 -2.25,1.01647 -2.25,2.25 l 0,16.5 c 0,1.23352 1.01648,2.25 2.25,2.25 l 16.5,0 c 1.23353,0 2.25,-1.01648 2.25,-2.25 l 0,-8.25 -1.5,0 0,8.25 c 0,0.42847 -0.32152,0.75 -0.75,0.75 l -16.5,0 c -0.42847,0 -0.75,-0.32153 -0.75,-0.75 l 0,-16.5 c 0,-0.42848 0.32153,-0.75 0.75,-0.75 l 8.25,0 0,-1.5 -8.25,0 z" baseline-shift="baseline" clip-rule="nonzero" color="#000" color-interpolation="sRGB" color-interpolation-filters="linearRGB" color-rendering="auto" direction="ltr" display="inline" enable-background="accumulate" font-family="sans-serif" font-size="medium" font-stretch="normal" font-style="normal" font-variant="normal" font-weight="normal" image-rendering="auto" letter-spacing="normal" opacity="1" overflow="visible" shape-rendering="auto" text-anchor="start" text-decoration="none" text-rendering="auto" visibility="visible" word-spacing="normal" writing-mode="lr-tb" style="line-height:normal;text-indent:0;text-align:start;text-decoration-line:none;text-decoration-style:solid;text-decoration-color:#000;text-transform:none;block-progression:tb;isolation:auto;mix-blend-mode:normal;solid-color:#000;solid-opacity:1;marker:none"/></g></g></g></svg>