<svg xmlns="http://www.w3.org/2000/svg" xmlns:svg="http://www.w3.org/2000/svg" xmlns:xlink="http://www.w3.org/1999/xlink" id="svg5918" width="16" height="16" x="0" y="0" enable-background="new 0 0 16 16" version="1.1" viewBox="0 0 16 16" xml:space="preserve"><rect id="rect5430" width="16" height="16" fill="none"/><g><path fill="#19B6EE" d="M8,0C3.6,0,0,3.6,0,8c0,4.4,3.6,8,8,8s8-3.6,8-8C16,3.6,12.4,0,8,0z M8,14.5c-3.6,0-6.5-2.9-6.5-6.5 c0-3.6,2.9-6.5,6.5-6.5s6.5,2.9,6.5,6.5C14.5,11.6,11.6,14.5,8,14.5z"/><rect width="2" height="2" x="7" y="10" fill="#19B6EE"/><rect width="2" height="5" x="7" y="4" fill="#19B6EE"/></g></svg>