<svg xmlns="http://www.w3.org/2000/svg" xmlns:svg="http://www.w3.org/2000/svg" id="svg5918" width="16" height="16" version="1.1" viewBox="0 0 16 16"><defs id="defs5920"><clipPath id="clipPath16" clipPathUnits="userSpaceOnUse"><path id="path18" d="m 0,595.28 841.89,0 L 841.89,0 0,0 0,595.28 Z"/></clipPath><clipPath id="clipPath16-0" clipPathUnits="userSpaceOnUse"><path id="path18-1" d="m 0,595.28 841.89,0 L 841.89,0 0,0 0,595.28 Z"/></clipPath><clipPath id="clipPath16-9" clipPathUnits="userSpaceOnUse"><path id="path18-3" d="m 0,595.28 841.89,0 L 841.89,0 0,0 0,595.28 Z"/></clipPath><clipPath id="clipPath16-7" clipPathUnits="userSpaceOnUse"><path id="path18-7" d="m 0,595.28 841.89,0 L 841.89,0 0,0 0,595.28 Z"/></clipPath></defs><metadata id="metadata5923"/><g id="layer1" transform="translate(-182.93849,-560.72008)"><g id="g5346" display="inline" transform="translate(-769.06151,404.35792)"><rect id="rect5348" width="16" height="16" x="952" y="156.362" fill="none" fill-opacity="1" fill-rule="nonzero" stroke="none" stroke-dasharray="1.5 1.5" stroke-dashoffset=".6" stroke-linecap="butt" stroke-linejoin="miter" stroke-miterlimit="4" stroke-opacity="1" stroke-width="1.5" color="#000" display="inline" enable-background="accumulate" opacity="1" overflow="visible" visibility="visible" style="marker:none"/><g id="g5404" display="inline" transform="translate(7.961637e-8,-2.8296164e-6)"><rect id="rect5406" width="16" height="16" x="952" y="156.362" fill="none" fill-opacity="1" fill-rule="nonzero" stroke="none" stroke-dasharray="1.5 1.5" stroke-dashoffset=".6" stroke-linecap="butt" stroke-linejoin="miter" stroke-miterlimit="4" stroke-opacity="1" stroke-width="1.5" color="#000" display="inline" enable-background="accumulate" opacity="1" overflow="visible" visibility="visible" style="marker:none"/><path id="path4833-5-5" fill="#dd4814" fill-opacity="1" stroke="none" d="m 954.66666,156.36218 c -1.77778,0 -2.66667,6.5e-4 -2.66667,2.06771 l 0,11.86589 c 0,2.06704 0.88889,2.0664 2.66667,2.0664 l 10.66666,0 c 1.77778,0 2.66666,6.4e-4 2.66666,-2.0664 l 0,-11.79949 c 0,-2.13333 -0.88888,-2.13411 -2.66666,-2.13411 z" display="inline" font-family="Ubuntu" font-size="15" font-stretch="normal" font-style="normal" font-variant="normal" font-weight="normal" letter-spacing="0" text-anchor="middle" word-spacing="0" writing-mode="lr-tb" style="line-height:125%;-inkscape-font-specification:Ubuntu;text-align:center"/></g><path id="path4331" fill="#fff" fill-opacity="1" fill-rule="nonzero" stroke="none" stroke-width="7.5" d="m 959.00013,159.36229 1.99976,0 0,9.99978 -1.99976,0 z" color="#000" display="inline" enable-background="accumulate" overflow="visible" visibility="visible" style="marker:none"/><rect id="rect4333" width="2" height="10" x="163.362" y="-965" fill="#fff" fill-opacity="1" fill-rule="nonzero" stroke="none" stroke-width="7.5" color="#000" display="inline" enable-background="accumulate" overflow="visible" transform="matrix(0,1,-1,0,0,0)" visibility="visible" style="marker:none"/></g></g></svg>