<svg xmlns="http://www.w3.org/2000/svg" xmlns:svg="http://www.w3.org/2000/svg" id="svg5918" width="16" height="16" version="1.1" viewBox="0 0 16 16"><defs id="defs5920"><clipPath id="clipPath16" clipPathUnits="userSpaceOnUse"><path id="path18" d="m 0,595.28 841.89,0 L 841.89,0 0,0 0,595.28 Z"/></clipPath><clipPath id="clipPath16-0" clipPathUnits="userSpaceOnUse"><path id="path18-1" d="m 0,595.28 841.89,0 L 841.89,0 0,0 0,595.28 Z"/></clipPath><clipPath id="clipPath16-9" clipPathUnits="userSpaceOnUse"><path id="path18-3" d="m 0,595.28 841.89,0 L 841.89,0 0,0 0,595.28 Z"/></clipPath><clipPath id="clipPath16-7" clipPathUnits="userSpaceOnUse"><path id="path18-7" d="m 0,595.28 841.89,0 L 841.89,0 0,0 0,595.28 Z"/></clipPath></defs><metadata id="metadata5923"/><g id="layer1" transform="translate(-182.93849,-560.7201)"><g id="g5346" display="inline" transform="translate(-769.06151,404.35792)"><g id="g4151"><path font-family="sans-serif" style="line-height:normal;-inkscape-font-specification:sans-serif;text-indent:0;text-align:start;text-decoration-line:none;text-transform:none;block-progression:tb;isolation:auto;mix-blend-mode:normal;marker:none" id="path4359" fill="gray" fill-opacity="1" fill-rule="nonzero" stroke="none" stroke-width="12.004" d="M 7 0 C 3.14207 0 0 3.14207 0 7 C 0 10.85793 3.14207 14 7 14 C 8.5412392 14 9.963051 13.490829 11.121094 12.642578 L 14.486328 16.007812 L 16 14.492188 L 12.638672 11.130859 C 13.490817 9.9712559 14 8.5451289 14 7 C 14 3.14207 10.85793 0 7 0 z M 7 1.3613281 C 10.12256 1.3613281 12.638672 3.87744 12.638672 7 C 12.638672 10.12256 10.12256 12.640625 7 12.640625 C 3.87744 12.640625 1.3613281 10.12256 1.3613281 7 C 1.3613281 3.87744 3.87744 1.3613281 7 1.3613281 z" baseline-shift="baseline" clip-rule="nonzero" color="#000" color-interpolation="sRGB" color-interpolation-filters="linearRGB" color-rendering="auto" direction="ltr" display="inline" enable-background="accumulate" font-stretch="normal" font-style="normal" font-variant="normal" font-weight="normal" image-rendering="auto" letter-spacing="normal" overflow="visible" shape-rendering="auto" text-anchor="start" text-decoration="none" text-rendering="auto" transform="translate(952,156.36218)" visibility="visible" word-spacing="normal" writing-mode="lr-tb"/></g></g></g></svg>