<svg xmlns="http://www.w3.org/2000/svg" xmlns:svg="http://www.w3.org/2000/svg" id="Layer_1" width="86.667" height="47.458" x="0" y="0" enable-background="new 0 0 86.667 47.458" version="1.1" viewBox="0 0 86.667 47.458" xml:space="preserve"><metadata id="metadata69"/><filter id="AI_GaussianBlur_4"><feGaussianBlur id="feGaussianBlur4" stdDeviation="1"/></filter><path id="path7" d="M84.63,15.239v16.317c0,13.318,0,13.318-13.318,13.318H57.994 c-13.317,0-13.317,0-13.317-13.318V15.239" filter="url(#AI_GaussianBlur_4)"/><g id="g9"><linearGradient id="SVGID_1_" x1="64.653" x2="64.653" y1="43.879" y2=".923" gradientUnits="userSpaceOnUse"><stop id="stop12" offset="0" stop-color="#B1AFAF"/><stop id="stop14" offset=".255" stop-color="#CECDCD"/><stop id="stop16" offset=".543" stop-color="#E8E7E7"/><stop id="stop18" offset=".801" stop-color="#F8F7F7"/><stop id="stop20" offset="1" stop-color="#FEFDFD"/></linearGradient><path id="path22" fill="url(#SVGID_1_)" d="M57.994,0.923h13.317c13.318,0,13.318,0,13.318,13.317v16.32c0,13.318,0,13.318-13.318,13.318 H57.994c-13.317,0-13.317,0-13.317-13.318V14.24C44.677,0.923,44.677,0.923,57.994,0.923L57.994,0.923z"/><linearGradient id="SVGID_2_" x1="64.653" x2="64.653" y1="44.879" y2="-.077" gradientUnits="userSpaceOnUse"><stop id="stop25" offset="0" stop-color="#6E6E6E"/><stop id="stop27" offset=".149" stop-color="#797979"/><stop id="stop29" offset=".409" stop-color="#969696"/><stop id="stop31" offset=".748" stop-color="#C5C5C5"/><stop id="stop33" offset="1" stop-color="#ECECEC"/></linearGradient><path id="path35" fill="url(#SVGID_2_)" d="M71.312,0.923c13.318,0,13.318,0,13.318,13.317v16.32c0,13.318,0,13.318-13.318,13.318H57.994 c-13.317,0-13.317,0-13.317-13.318V14.24c0-13.317,0-13.317,13.317-13.317H71.312 M71.312-0.077H57.994 c-13.916,0-14.317,0.401-14.317,14.317v16.32c0,13.917,0.401,14.318,14.317,14.318h13.317c13.917,0,14.318-0.401,14.318-14.318 V14.24C85.63,0.324,85.229-0.077,71.312-0.077L71.312-0.077z"/></g><path id="path37" fill="none" stroke="#4F4F4F" stroke-linecap="round" stroke-linejoin="round" stroke-miterlimit="10" d="M71.604,17.027 c-0.604,0-2.914,0-2.914,0c-0.304,0-0.577-0.286-0.68-0.711c0,0-0.644-2.616-1.202-4.887c-0.523,2.216-1.115,4.726-1.115,4.726 c-0.108,0.456-0.401,0.751-0.723,0.722c-0.322-0.022-0.594-0.361-0.671-0.834c0,0-1.036-6.511-1.878-11.794 c-0.501,6.658-1.282,17.062-1.282,17.062c-0.034,0.452-0.256,0.827-0.552,0.933c-0.297,0.108-0.605-0.073-0.776-0.452 c0,0-1.761-3.968-2.116-4.765c-0.295,0-1.23,0-2.045,0"/><g id="g41"><circle id="circle43" cx="3.934" cy="23.002" r="2.5" fill="#ADB8BF"/><path id="path45" fill="#919191" d="M3.934,21.002c1.105,0,2,0.896,2,2c0,1.105-0.895,2-2,2s-2-0.895-2-2 C1.934,21.897,2.828,21.002,3.934,21.002 M3.934,20.002c-1.654,0-3,1.346-3,3s1.346,3,3,3s3-1.346,3-3S5.588,20.002,3.934,20.002 L3.934,20.002z"/></g><g id="g47"><circle id="circle49" cx="14.734" cy="23.002" r="2.5" fill="#ADB8BF"/><path id="path51" fill="#919191" d="M14.734,21.002c1.105,0,2,0.896,2,2c0,1.105-0.895,2-2,2s-2-0.895-2-2 C12.734,21.897,13.629,21.002,14.734,21.002 M14.734,20.002c-1.654,0-3,1.346-3,3s1.346,3,3,3s3-1.346,3-3 S16.389,20.002,14.734,20.002L14.734,20.002z"/></g><g id="g53"><circle id="circle55" cx="25.534" cy="23.002" r="2.5" fill="#ADB8BF"/><path id="path57" fill="#919191" d="M25.534,21.002c1.105,0,2,0.896,2,2c0,1.105-0.895,2-2,2s-2-0.895-2-2 C23.534,21.897,24.429,21.002,25.534,21.002 M25.534,20.002c-1.654,0-3,1.346-3,3s1.346,3,3,3s3-1.346,3-3 S27.188,20.002,25.534,20.002L25.534,20.002z"/></g><g id="g59"><circle id="circle61" cx="36.334" cy="23.002" r="2.5" fill="#ADB8BF"/><path id="path63" fill="#919191" d="M36.334,21.002c1.105,0,2,0.896,2,2c0,1.105-0.895,2-2,2s-2-0.895-2-2 C34.334,21.897,35.229,21.002,36.334,21.002 M36.334,20.002c-1.654,0-3,1.346-3,3s1.346,3,3,3s3-1.346,3-3 S37.988,20.002,36.334,20.002L36.334,20.002z"/></g></svg>