<svg xmlns="http://www.w3.org/2000/svg" xmlns:svg="http://www.w3.org/2000/svg" id="svg5918" width="16" height="16" version="1.1" viewBox="0 0 16 16"><defs id="defs5920"><clipPath id="clipPath16" clipPathUnits="userSpaceOnUse"><path id="path18" d="m 0,595.28 841.89,0 L 841.89,0 0,0 0,595.28 Z"/></clipPath><clipPath id="clipPath16-0" clipPathUnits="userSpaceOnUse"><path id="path18-1" d="m 0,595.28 841.89,0 L 841.89,0 0,0 0,595.28 Z"/></clipPath></defs><metadata id="metadata5923"/><g id="layer1" transform="translate(-182.93849,-560.7201)"><g id="g5346" display="inline" transform="translate(-769.06151,404.35792)"><g id="g4792" display="inline" transform="matrix(0.66666668,0,0,0.66666668,664,84.12069)"><rect id="rect4794" width="23.991" height="24" x="108.372" y="-456" fill="none" stroke="none" stroke-width="4" color="#000" display="inline" enable-background="accumulate" overflow="visible" transform="matrix(0,1,-1,0,0,0)" visibility="visible" style="marker:none"/><path font-style="normal" style="line-height:125%;-inkscape-font-specification:Ubuntu;text-align:center" id="path4796" fill="gray" fill-opacity="1" stroke="none" d="m 450.45494,123.17728 c -0.85084,1.22902 -1.77689,2.29409 -2.65972,3.20439 l 0.003,0 c -1.61666,1.5966 -3.7905,3.50285 -3.7905,3.50285 0,0 -2.30406,-1.87252 -3.80432,-3.50045 l 0.003,0 c -0.88172,-0.90911 -1.80719,-1.97251 -2.65732,-3.19959 -0.038,0.0145 -0.0768,0.0266 -0.11472,0.0414 -2.04812,0.7763 -3.85664,1.80859 -5.42575,3.09689 l 0,6.03946 8.489,0 0.0109,0 6.98288,0 8.4998,0 0,-6.03946 c -1.5691,-1.2883 -3.36891,-2.32059 -5.4005,-3.09689 -0.0448,-0.0173 -0.0908,-0.0318 -0.13571,-0.0487 z" font-family="Ubuntu" font-size="15.003" font-stretch="normal" font-variant="normal" font-weight="normal" letter-spacing="0" text-anchor="middle" word-spacing="0" writing-mode="lr-tb"/><path id="path4798" fill="gray" fill-opacity="1" stroke="none" d="m 443.99933,108.38939 c -1.89839,1.6e-4 -3.73401,0.80113 -5.07623,2.21413 -1.34243,1.41321 -2.10244,3.3455 -2.10244,5.34345 l 0,0.005 c 0.003,0.76924 0.0722,1.65429 0.43478,2.55222 0.94538,2.34092 2.36277,4.15889 3.65719,5.56385 l -0.002,0 c 0.35745,0.40832 0.76488,0.82274 1.17101,1.22147 l 3.7887,0 c 0.41123,-0.40212 0.83145,-0.81901 1.22086,-1.22387 l -0.003,0 c 1.294,-1.40464 2.71096,-3.22139 3.65598,-5.56145 0.36258,-0.89782 0.43194,-1.78276 0.43478,-2.55222 l 0,-0.005 c 0,-1.9983 -0.76076,-3.93041 -2.10304,-5.34345 -1.34206,-1.41282 -3.17724,-2.21397 -5.07562,-2.21413 l -6.1e-4,0 z" font-family="Ubuntu" font-size="121.63" font-stretch="normal" font-style="normal" font-variant="normal" font-weight="normal" letter-spacing="0" text-anchor="middle" word-spacing="0" writing-mode="lr-tb" style="line-height:125%;-inkscape-font-specification:Ubuntu;text-align:center"/></g></g></g></svg>